# xmcd CD database file
#
# Track frame offsets:
#	225
#	15190
#	30915
#	46337
#	66627
#	82338
#	100368
#	120449
#	139374
#	154345
#	170710
#	184561
#	206936
#	224423
#	239245
#	250214
#	262951
#	282353
#
# Disc length: 3992 seconds
#
# Revision: 0
# Processed by: cddbd v1.5.2PL0 Copyright (c) Steve Scherf et al.
# Submitted via: Feurio! 1.68 - http://www.feurio.com
#
DISCID=150f9512
DTITLE=Various Artist - Mille Mille Grazie
DYEAR=1900
DGENRE=
TTITLE0=I Santo Calirornia - Il Giorno Piu Bello
TTITLE1=Ricci E Poveri - Piccolo Amore
TTITLE2=Enzo Belmonte - Ti Amo
TTITLE3=Gigliola Cinquetti - Alle Porte Del Sole
TTITLE4=Tony Dallara - Romantica
TTITLE5=Franco Paradise - Diamante
TTITLE6=Flavia Fortunato - Un Angelo
TTITLE7=Juli and Julie - Eppure Ti Amo
TTITLE8=I Gugini Di Campagna - Meravigliosamente
TTITLE9=La Fabbrica Di Stelle - Sei Sempre L` Anima Mia
TTITLE10=Marino Marinei - La Piu Bella Del Mondo
TTITLE11=Jo Chiarello - Ma Che Bella Storia D' Amore
TTITLE12=I Dolci Pensieri - Non Ti Scordero
TTITLE13=Massimo Bizzarri - Tu
TTITLE14=Paolo Mengoli - To Lo Leggo Negli Occhi
TTITLE15=Adriano Celentano - Nata Per Me
TTITLE16=Drupi - Bella Come Te
TTITLE17=Toto Cutugno - Serenata
EXTD=
EXTT0=
EXTT1=
EXTT2=
EXTT3=
EXTT4=
EXTT5=
EXTT6=
EXTT7=
EXTT8=
EXTT9=
EXTT10=
EXTT11=
EXTT12=
EXTT13=
EXTT14=
EXTT15=
EXTT16=
EXTT17=
PLAYORDER=
